<?xml version="1.0" standalone="no"?>
<!DOCTYPE svg PUBLIC "-//W3C//DTD SVG 20010904//EN"
 "http://www.w3.org/TR/2001/REC-SVG-20010904/DTD/svg10.dtd">
<svg version="1.0" xmlns="http://www.w3.org/2000/svg"
 width="500.000000pt" height="500.000000pt" viewBox="0 0 500.000000 500.000000"
 preserveAspectRatio="xMidYMid meet">

<g transform="translate(0.000000,500.000000) scale(0.100000,-0.100000)"
fill="#000000" stroke="none">
<path d="M2405 3466 c-16 -16 -23 -26 -15 -22 8 4 6 0 -4 -8 -11 -9 -23 -16
-28 -16 -4 0 -8 -7 -8 -16 0 -8 -4 -12 -10 -9 -6 4 -9 -3 -7 -16 1 -17 -5 -25
-23 -30 -21 -6 -22 -7 -5 -9 19 -1 19 -2 2 -9 -10 -4 -18 -10 -18 -14 1 -4 -1
-18 -5 -32 -3 -14 -1 -32 6 -40 10 -12 7 -19 -16 -38 -25 -22 -27 -47 -3 -47
6 0 7 5 4 10 -3 6 -1 10 4 10 6 0 11 -8 11 -17 0 -10 12 7 26 37 14 30 32 59
40 63 8 4 14 19 14 32 0 31 22 52 70 66 43 13 48 23 25 53 -8 11 -15 32 -15
47 0 38 -10 40 -45 5z"/>
<path d="M3266 3431 c-4 -6 -13 -11 -21 -11 -25 0 -84 -45 -96 -72 -8 -19 -19
-28 -35 -28 -18 0 -24 -6 -24 -21 0 -15 5 -19 15 -15 9 3 15 0 15 -8 0 -8 -7
-17 -16 -20 -8 -3 -12 -10 -9 -16 3 -5 -1 -10 -9 -10 -9 0 -17 -6 -18 -12 0
-7 -2 -17 -3 -23 -2 -5 -3 -16 -4 -22 0 -7 -9 -13 -18 -13 -9 0 -14 -3 -10 -6
3 -3 39 6 80 20 102 35 173 34 262 -4 11 -5 45 -9 75 -9 30 0 65 -2 77 -3 35
-5 31 15 -7 34 l-35 18 43 0 c23 0 58 -7 78 -15 33 -14 35 -13 43 7 14 38 13
135 -3 171 -8 20 -14 37 -13 39 1 2 0 2 -2 0 -3 -1 -4 -27 -2 -57 2 -53 -11
-95 -29 -95 -6 0 -10 21 -10 48 0 52 -30 112 -55 112 -12 0 -15 -8 -12 -32 2
-18 2 -25 0 -16 -3 14 -11 8 -36 -25 -25 -32 -42 -44 -75 -51 -23 -6 -42 -16
-42 -23 0 -7 -4 -13 -10 -13 -15 0 -12 10 15 46 28 36 33 53 10 34 -25 -21
-36 -7 -20 24 19 37 16 58 -10 63 -57 13 -83 14 -89 4z"/>
<path d="M3594 3084 c6 -15 5 -17 -5 -6 -18 17 -49 15 -49 -3 0 -8 -6 -12 -12
-10 -19 7 -48 -20 -57 -52 -5 -18 -15 -29 -29 -31 -15 -2 -22 -10 -22 -25 0
-12 -7 -35 -15 -51 -8 -15 -15 -36 -15 -45 0 -9 -11 -39 -24 -67 -24 -52 -21
-74 11 -74 7 0 13 -2 13 -5 0 -12 -53 -80 -62 -77 -5 1 -23 -26 -39 -60 -35
-74 -68 -129 -92 -156 -9 -10 -17 -23 -17 -28 0 -5 -13 -24 -30 -42 -16 -18
-30 -37 -30 -43 0 -5 -4 -9 -9 -9 -5 0 -11 -10 -13 -22 -2 -13 -10 -23 -19
-23 -8 0 -30 -15 -48 -32 -18 -18 -25 -30 -17 -27 11 4 16 1 16 -11 0 -9 -4
-14 -9 -11 -4 3 -16 -3 -25 -13 -16 -17 -15 -18 21 -19 59 0 95 -18 91 -44 -2
-18 -12 -24 -41 -29 -51 -8 -54 -14 -15 -33 31 -16 33 -16 49 5 13 18 19 20
38 10 l21 -12 -29 -24 c-18 -16 -41 -25 -63 -25 -18 0 -50 -9 -71 -20 -20 -11
-37 -15 -37 -9 0 5 -4 7 -10 4 -5 -3 -10 -14 -10 -25 0 -20 44 -40 94 -41 l31
-1 -32 -11 c-17 -7 -35 -15 -39 -19 -4 -5 -22 -8 -39 -8 -28 0 -33 -4 -39 -31
-4 -22 -10 -30 -21 -25 -8 3 -15 0 -15 -7 0 -7 -5 -4 -11 6 -5 9 -8 21 -5 25
2 4 -12 6 -32 4 -33 -4 -34 -6 -14 -13 28 -11 28 -25 0 -33 -34 -9 -50 -7 -43
4 8 13 5 12 -34 -1 -17 -6 -31 -15 -31 -21 0 -13 -63 1 -72 16 -5 8 -8 7 -8
-2 0 -7 -4 -11 -9 -8 -5 3 -11 0 -14 -8 -14 -36 74 -97 148 -103 22 -1 63 -5
90 -9 35 -4 63 -1 95 11 25 10 72 20 105 24 33 4 74 14 91 23 39 21 67 63 62
93 -4 21 0 23 48 29 29 3 65 2 79 -4 62 -24 162 -2 185 40 9 16 8 28 -4 53
l-16 32 20 -24 c26 -30 25 -61 0 -89 -28 -30 -59 -36 -144 -29 -40 4 -88 4
-108 1 -31 -6 -37 -11 -42 -39 -13 -66 -105 -124 -180 -112 -18 3 -46 -3 -66
-13 -78 -39 -171 -33 -279 17 -89 42 -178 143 -126 143 9 0 40 18 70 40 41 30
55 47 55 66 0 38 24 87 57 115 28 23 34 49 12 49 -6 0 -8 -4 -5 -9 3 -5 -3
-11 -14 -14 -13 -3 -18 -10 -14 -21 3 -9 1 -16 -5 -16 -6 0 -11 7 -11 15 0 8
-4 15 -10 15 -5 0 -10 -9 -10 -19 0 -11 -4 -23 -10 -26 -5 -3 -10 -1 -10 4 0
6 -4 11 -9 11 -5 0 -7 -9 -4 -21 5 -18 2 -19 -23 -14 l-29 6 22 -19 22 -20
-22 -7 c-12 -4 -25 -7 -29 -6 -5 1 -8 -4 -8 -10 0 -5 -5 -7 -10 -4 -6 4 -8 16
-5 28 6 22 6 22 -10 2 -9 -11 -14 -28 -11 -37 5 -22 -22 -24 -30 -3 -8 20 -24
19 -24 -2 0 -13 -4 -11 -20 7 -11 13 -20 32 -20 44 -1 19 -1 20 -11 3 -6 -9
-14 -15 -20 -12 -16 11 -10 61 11 88 14 17 19 36 16 54 -2 15 -5 33 -5 38 -1
6 -6 3 -11 -5 -8 -13 -10 -12 -10 2 0 19 -13 19 -67 -2 -18 -6 -33 -16 -33
-21 0 -5 -7 -9 -15 -9 -8 0 -15 -4 -15 -10 0 -5 -19 -22 -43 -39 -66 -45 -97
-93 -110 -165 -10 -58 -9 -64 13 -93 15 -21 28 -29 38 -25 11 4 9 -2 -6 -18
-12 -13 -23 -31 -23 -39 -1 -9 -2 -23 -3 -31 -1 -13 -11 -38 -47 -115 -17 -36
-63 -81 -101 -100 -21 -9 -38 -21 -38 -26 0 -4 -30 -22 -67 -40 -38 -18 -70
-35 -73 -38 -3 -3 -23 -12 -45 -19 -70 -23 -135 -57 -135 -71 0 -10 3 -11 13
-2 10 7 16 8 24 0 8 -8 15 -6 25 10 15 24 28 27 28 7 0 -7 -16 -27 -35 -43
-19 -17 -35 -36 -35 -42 0 -6 -10 -15 -22 -20 -20 -7 -16 -10 26 -16 32 -5 82
-2 147 9 54 9 110 16 125 16 36 0 143 52 204 101 56 44 76 48 162 30 39 -8
148 -11 332 -9 270 3 275 3 298 -19 38 -36 73 -43 217 -43 152 0 246 13 275
38 11 10 16 11 12 5 -5 -9 -2 -11 8 -7 9 3 13 11 9 17 -3 6 -1 7 5 3 7 -4 22
0 34 8 12 9 37 16 54 16 17 0 37 7 45 16 10 12 24 14 65 9 34 -4 54 -2 59 5 4
6 14 9 22 6 8 -3 11 -1 8 4 -4 6 9 10 30 10 22 0 38 -6 41 -15 8 -21 44 -19
44 2 0 23 41 106 57 116 7 4 13 15 13 22 0 8 8 15 19 15 10 0 24 7 31 15 18
21 4 122 -18 135 -11 6 -12 9 -4 10 7 0 20 7 28 15 8 8 22 18 30 23 8 5 17 30
21 60 3 29 9 52 13 52 10 0 20 -38 20 -79 0 -33 0 -34 20 -16 11 10 20 28 20
39 0 30 42 105 63 112 9 3 17 14 17 25 0 11 11 35 25 53 14 18 25 38 25 44 0
7 4 12 8 12 15 0 41 67 35 91 -4 14 -2 20 4 16 7 -5 9 0 6 12 -3 13 2 23 16
30 12 7 21 18 21 25 0 8 7 16 15 20 8 3 15 14 15 25 0 11 4 22 9 25 5 4 1 33
-10 69 -24 77 -23 80 1 72 22 -7 24 -3 11 23 -5 9 -14 35 -21 57 -18 58 -70
101 -150 125 -37 11 -72 20 -79 20 -6 0 -11 16 -11 39 0 82 -48 154 -145 216
-61 39 -102 53 -188 63 -51 6 -67 5 -67 -4 0 -7 21 -15 53 -19 118 -15 186
-45 240 -104 43 -48 52 -75 44 -144 -6 -50 -5 -53 24 -69 32 -19 59 -70 59
-112 0 -14 -7 -43 -16 -65 l-16 -39 41 -41 c37 -37 41 -46 41 -92 0 -59 -23
-105 -67 -131 -19 -11 -34 -33 -46 -67 -21 -59 -73 -116 -131 -142 -36 -16
-40 -22 -42 -54 -1 -47 -22 -83 -59 -102 l-30 -16 32 30 c35 33 48 67 41 113
-2 16 -1 27 3 25 4 -3 29 10 55 28 66 43 104 117 104 199 0 81 -16 112 -98
191 -72 69 -80 81 -34 49 15 -10 48 -29 74 -41 26 -12 58 -35 72 -51 23 -28
24 -29 30 -7 3 12 -1 28 -9 37 -9 10 -11 20 -4 32 12 21 -6 34 -25 19 -11 -9
-15 1 -20 52 -6 50 -14 71 -37 98 -16 19 -29 39 -29 44 -1 6 -7 -3 -15 -20 -8
-16 -20 -37 -27 -46 -25 -30 -110 -89 -128 -89 -23 0 -26 -5 -34 -55 -4 -22
-13 -47 -21 -55 -20 -20 -20 2 1 41 8 17 13 37 10 45 -6 16 8 31 69 75 54 39
94 94 101 141 9 52 -26 125 -68 142 -40 17 -48 13 -48 -22 0 -44 -41 -104 -93
-136 -38 -23 -62 -30 -110 -32 -34 -2 -53 -1 -42 2 96 23 103 26 98 43 -4 9
-3 13 2 9 8 -8 85 93 85 111 0 6 5 11 10 11 15 0 12 73 -5 97 -8 11 -25 23
-39 27 -27 7 -38 35 -29 77 5 26 3 29 -21 29 -16 0 -26 5 -26 15 0 11 5 12 25
5 14 -5 25 -7 25 -4 0 23 -60 98 -94 116 -16 9 -18 8 -12 -8z m36 -84 c0 -5
-5 -10 -11 -10 -5 0 -7 5 -4 10 3 6 8 10 11 10 2 0 4 -4 4 -10z m-47 -17 c-7
-2 -19 -2 -25 0 -7 3 -2 5 12 5 14 0 19 -2 13 -5z m150 -718 c-3 -9 -8 -14
-10 -11 -3 3 -2 9 2 15 9 16 15 13 8 -4z m-663 -60 c0 -1 -6 -8 -14 -15 -12
-9 -15 -8 -13 8 0 12 6 18 14 15 7 -3 13 -6 13 -8z m-647 -125 c-3 -11 -9 -17
-15 -14 -5 3 -4 12 3 20 16 19 18 18 12 -6z m-13 -40 c0 -5 -5 -10 -11 -10 -5
0 -7 5 -4 10 3 6 8 10 11 10 2 0 4 -4 4 -10z m1395 -310 c-10 -11 -22 -20 -27
-20 -10 0 24 38 36 39 5 1 1 -8 -9 -19z m-52 -27 c-7 -2 -19 -2 -25 0 -7 3 -2
5 12 5 14 0 19 -2 13 -5z"/>
<path d="M1641 3082 l-43 -3 21 -23 c21 -22 21 -24 4 -32 -10 -4 -29 -8 -42
-8 -16 -1 -29 -12 -42 -35 -10 -19 -24 -38 -31 -43 -10 -6 -10 -8 1 -8 8 0 1
-14 -18 -35 -17 -20 -31 -40 -31 -46 0 -6 -14 -23 -32 -39 -17 -16 -30 -32
-27 -34 9 -10 49 6 42 17 -3 5 -1 7 4 4 13 -8 73 21 80 39 3 7 20 23 38 34 19
12 43 40 56 66 12 25 36 55 55 67 27 18 32 27 27 47 -8 34 -11 35 -62 32z"/>
<path d="M3720 2890 c0 -5 5 -10 11 -10 5 0 7 5 4 10 -3 6 -8 10 -11 10 -2 0
-4 -4 -4 -10z"/>
<path d="M1965 2841 c-3 -6 -4 -20 0 -30 3 -10 -1 -24 -10 -31 -13 -11 -10
-17 25 -50 27 -25 38 -43 34 -53 -3 -9 -9 -16 -12 -15 -19 2 -32 -3 -32 -14 0
-6 -7 -20 -17 -30 -22 -25 -11 -33 24 -15 15 8 53 18 83 22 l55 7 -3 38 c-2
21 1 48 8 60 9 16 9 25 0 35 -7 8 -9 19 -5 25 3 5 1 10 -5 10 -7 0 -9 7 -6 16
3 8 2 12 -4 9 -6 -3 -10 -3 -10 2 0 4 -17 8 -37 9 -21 1 -48 4 -59 8 -13 5
-25 3 -29 -3z"/>
<path d="M3830 2781 c0 -5 9 -7 20 -4 11 3 20 7 20 9 0 2 -9 4 -20 4 -11 0
-20 -4 -20 -9z"/>
<path d="M2515 2600 c-44 -29 -108 -36 -158 -16 -23 8 -52 15 -65 14 -22 -2
-22 -3 -5 -16 54 -42 159 -56 197 -27 11 8 32 15 48 15 23 0 28 4 28 25 0 30
-6 31 -45 5z"/>
<path d="M2005 2563 c-22 -6 -69 -37 -100 -66 -11 -10 -38 -29 -60 -42 -22
-13 -48 -38 -58 -55 -10 -16 -23 -30 -28 -30 -6 0 -7 -5 -4 -10 3 -6 -4 -25
-17 -43 -15 -20 -23 -46 -23 -72 0 -40 0 -40 -40 -40 -31 0 -46 -6 -67 -29
-30 -31 -34 -41 -18 -51 16 -10 12 -25 -5 -19 -8 4 -15 1 -15 -4 0 -6 -11 -23
-26 -37 -14 -14 -22 -30 -19 -35 3 -6 1 -10 -4 -10 -6 0 -11 5 -11 10 0 14
-42 12 -63 -4 -11 -8 -15 -20 -11 -32 5 -15 4 -16 -5 -4 -12 18 -24 9 -16 -13
10 -24 46 -29 52 -6 6 23 7 23 39 2 23 -15 28 -15 60 0 29 14 34 15 34 2 0 -8
9 -15 21 -15 13 0 18 -4 13 -12 -5 -8 -2 -9 9 -5 16 6 16 4 2 -23 -15 -28 -14
-30 3 -30 11 0 30 -9 44 -19 32 -26 64 -18 71 17 3 15 2 34 -3 42 -4 8 -11 39
-15 67 -6 49 -4 58 39 142 25 50 46 92 46 95 0 3 -12 4 -27 3 -22 -2 -29 3
-31 20 -5 35 37 120 79 158 43 38 66 46 54 18 -4 -10 -7 -26 -7 -35 0 -10 -3
-20 -9 -23 -5 -4 -9 -11 -9 -16 0 -6 5 -7 12 -3 7 4 8 3 4 -4 -5 -9 -13 -9
-27 -1 -19 10 -20 9 -9 -11 7 -13 8 -20 2 -17 -7 5 -32 -32 -32 -48 0 -10 29
-4 42 8 49 46 83 67 110 67 20 0 37 8 50 25 35 44 73 57 151 52 48 -4 78 -12
97 -25 17 -13 48 -21 86 -24 32 -2 66 -6 74 -9 12 -3 15 6 15 46 1 28 4 60 8
72 8 23 14 21 -94 38 -36 6 -100 -5 -93 -16 2 -5 21 -16 40 -25 25 -12 32 -19
23 -25 -8 -4 -18 -4 -24 1 -6 5 -32 14 -58 21 -27 6 -51 18 -54 25 -3 8 -16
14 -29 14 -13 0 -32 10 -43 21 -20 22 -86 33 -126 22z"/>
<path d="M2966 2174 c-4 -12 -15 -15 -37 -12 -25 4 -33 1 -37 -14 -2 -10 -14
-18 -26 -18 -30 -1 -60 -22 -64 -44 -3 -16 1 -18 30 -13 33 5 121 36 105 37
-5 0 -2 6 5 14 33 35 47 56 39 61 -5 3 -12 -2 -15 -11z"/>
<path d="M2410 2170 c0 -5 5 -10 10 -10 6 0 10 5 10 10 0 6 -4 10 -10 10 -5 0
-10 -4 -10 -10z"/>
<path d="M2865 2170 c-3 -5 -1 -10 4 -10 6 0 11 5 11 10 0 6 -2 10 -4 10 -3 0
-8 -4 -11 -10z"/>
<path d="M1144 1947 c3 -14 2 -28 -4 -32 -5 -3 -6 -13 -3 -21 5 -13 1 -15 -14
-10 -12 4 -25 1 -33 -9 -10 -12 -9 -15 6 -16 11 0 32 -2 47 -3 15 -1 39 5 52
14 l23 15 -40 44 c-36 38 -40 40 -34 18z"/>
<path d="M2820 1904 c-24 -13 -24 -14 -4 -14 12 0 24 7 28 15 3 8 4 15 3 14
-1 -1 -13 -7 -27 -15z"/>
<path d="M1350 1820 c-8 -5 -10 -10 -5 -10 6 0 17 5 25 10 8 5 11 10 5 10 -5
0 -17 -5 -25 -10z"/>
<path d="M1470 1823 c-58 -4 -67 -7 -90 -35 -23 -28 -33 -31 -117 -40 -52 -6
-100 -7 -110 -2 -10 5 -70 9 -134 9 l-117 0 29 -30 c16 -16 56 -63 89 -102 51
-61 66 -73 91 -73 17 0 32 -6 35 -15 4 -8 14 -15 25 -15 10 0 23 -9 29 -20 8
-15 17 -19 35 -14 19 5 25 2 25 -10 0 -8 9 -20 20 -26 17 -9 20 -8 20 12 0 34
55 145 79 157 11 6 32 11 48 11 30 0 53 33 53 77 0 23 31 63 49 63 5 0 14 14
20 30 7 23 7 30 -2 28 -7 -1 -41 -3 -77 -5z"/>
<path d="M1308 1803 c7 -3 16 -2 19 1 4 3 -2 6 -13 5 -11 0 -14 -3 -6 -6z"/>
<path d="M4266 1681 c-33 -63 -78 -108 -125 -122 l-37 -11 4 -57 c3 -44 -1
-65 -20 -102 l-24 -47 145 5 c160 6 181 12 229 67 86 99 34 242 -110 301 l-38
15 -24 -49z"/>
</g>
</svg>
