<?xml version="1.0" standalone="no"?>
<!DOCTYPE svg PUBLIC "-//W3C//DTD SVG 20010904//EN"
 "http://www.w3.org/TR/2001/REC-SVG-20010904/DTD/svg10.dtd">
<svg version="1.0" xmlns="http://www.w3.org/2000/svg"
 width="500.000000pt" height="500.000000pt" viewBox="0 0 500.000000 500.000000"
 preserveAspectRatio="xMidYMid meet">

<g transform="translate(0.000000,500.000000) scale(0.100000,-0.100000)"
fill="#000000" stroke="none">
<path d="M1954 4045 c-219 -39 -392 -132 -540 -287 -132 -139 -217 -310 -250
-502 -9 -50 -17 -91 -17 -92 -1 0 -29 -5 -62 -12 -95 -19 -182 -67 -255 -141
-108 -109 -150 -214 -150 -371 0 -101 16 -166 61 -250 60 -113 180 -211 307
-250 63 -20 96 -20 1446 -20 1511 0 1437 -3 1550 58 66 34 184 152 218 218
106 199 66 460 -96 619 -69 68 -165 120 -253 137 -32 7 -59 13 -61 14 -2 1
-10 35 -18 76 -9 40 -34 111 -56 158 -34 71 -56 100 -132 175 -144 142 -279
199 -471 198 -103 0 -184 -16 -271 -54 l-47 -20 -44 50 c-199 227 -557 351
-859 296z m274 -125 c217 -36 396 -144 554 -337 33 -42 66 -43 139 -4 74 40
162 61 256 61 287 0 505 -205 539 -505 8 -71 25 -95 70 -95 53 0 135 -21 187
-47 266 -134 291 -509 45 -676 -106 -72 -10 -68 -1544 -65 l-1379 3 -58 28
c-253 125 -304 464 -97 651 69 63 182 106 274 106 51 0 63 22 75 138 35 331
236 588 552 706 106 40 268 55 387 36z"/>
<path d="M1313 1854 c-18 -8 -143 -227 -143 -252 0 -52 68 -79 108 -44 32 27
132 211 132 241 0 46 -49 74 -97 55z"/>
<path d="M2097 1828 c-48 -66 -119 -200 -119 -224 0 -58 70 -85 109 -41 33 36
133 214 133 236 0 30 -35 61 -69 61 -22 0 -36 -9 -54 -32z"/>
<path d="M2923 1854 c-18 -8 -143 -227 -143 -251 0 -25 40 -63 67 -63 11 0 30
8 41 18 32 27 132 211 132 241 0 46 -49 74 -97 55z"/>
<path d="M3707 1828 c-50 -69 -117 -198 -117 -227 0 -56 69 -81 107 -38 33 36
133 213 133 236 0 30 -35 61 -69 61 -22 0 -36 -9 -54 -32z"/>
<path d="M1707 1302 c-28 -30 -137 -226 -137 -244 0 -27 37 -58 68 -58 17 0
37 9 49 23 25 26 133 217 133 233 0 6 -9 23 -21 38 -24 31 -68 35 -92 8z"/>
<path d="M2512 1302 c-30 -30 -132 -219 -132 -244 0 -51 67 -76 107 -40 31 26
133 210 133 238 0 53 -70 84 -108 46z"/>
<path d="M3307 1288 c-55 -73 -129 -217 -122 -237 17 -53 76 -68 112 -28 26
29 122 193 129 221 8 32 -30 76 -66 76 -21 0 -36 -9 -53 -32z"/>
</g>
</svg>
